<svg version="1.1" xmlns="http://www.w3.org/2000/svg" xmlns:xlink="http://www.w3.org/1999/xlink" x="0px" y="0px"
	 width="64.375px" height="58.188px" viewBox="-13.75 31.188 64.375 58.188" enable-background="new -13.75 31.188 64.375 58.188"
	 xml:space="preserve">
<g id="Layer_3">
</g>
<g id="Layer_2">
	<path fill="#009A97" d="M18.821,84.251h-8.519c0-12.987-4.701-19.444-4.701-19.444l11.107-24.518h2.113"/>
	<path fill="#028E87" d="M18.444,84.251h8.318c0-12.987,4.591-19.444,4.591-19.444L20.508,40.289h-2.063"/>
	<polygon fill="#025256" points="29.562,89.376 7.374,89.376 9.534,83.788 27.424,83.788 	"/>
</g>
<g id="Layer_1">
	<line fill="none" stroke="#025256" stroke-miterlimit="10" x1="18.468" y1="40.289" x2="18.468" y2="61.531"/>
	<circle fill="#025256" cx="18.468" cy="64.5" r="3.219"/>
	<line fill="none" stroke="#009A97" stroke-miterlimit="10" x1="-11.413" y1="33.52" x2="48.346" y2="33.52"/>
	<g>
		<path fill="#025256" d="M50.429,33.52c0,1.146-0.938,2.083-2.084,2.083c-1.146,0-2.083-0.938-2.083-2.083s0.938-2.083,2.083-2.083
			C49.492,31.437,50.429,32.374,50.429,33.52z"/>
	</g>
	<rect x="16.383" y="31.437" fill="#025256" width="4.167" height="4.167"/>
	<g>
		<path fill="#025256" d="M-9.33,33.52c0,1.146-0.938,2.083-2.083,2.083s-2.083-0.938-2.083-2.083s0.938-2.083,2.083-2.083
			S-9.33,32.374-9.33,33.52z"/>
	</g>
</g>
</svg>
