<svg version="1.1" id="Layer_1" xmlns="http://www.w3.org/2000/svg" xmlns:xlink="http://www.w3.org/1999/xlink" x="0px" y="0px"
	 width="93.625px" height="69.5px" viewBox="19.125 31.5 93.625 69.5" enable-background="new 19.125 31.5 93.625 69.5"
	 xml:space="preserve">
<g id="Layer_1_1_">
	<rect x="-556.858" y="-753.844" fill="#F4F5F5" fill-opacity="0" width="750.687" height="1567.5"/>
</g>
<path fill="#009897" d="M19.651,73.47V42.901c0-1.167,1.847-2.112,4.125-2.112h84.447c2.278,0,4.125,0.946,4.125,2.112V73.47"/>
<g>
	<path fill="#025256" d="M112.349,43.368v-7.22c0-2.278-1.847-4.125-4.125-4.125H23.776c-2.278,0-4.125,1.847-4.125,4.125v7.22
		H112.349z"/>
</g>
<g>
	<path fill="#028E87" d="M19.651,72.345v24.099c0,2.228,1.847,4.033,4.125,4.033h84.448c2.277,0,4.125-1.806,4.125-4.033V72.345
		H19.651z"/>
</g>
<circle fill="#028E87" cx="25.781" cy="37.695" r="3.094"/>
<circle fill="#028E87" cx="35.062" cy="37.695" r="3.094"/>
<circle fill="#028E87" cx="44.345" cy="37.695" r="3.094"/>
<g>
	<g>
		<defs>
			<path id="SVGID_1_" d="M108.224,99.977H23.776c-2.278,0-4.125-2.948-4.125-5.227V36.148c0-2.278,1.847-4.125,4.125-4.125h84.447
				c2.278,0,4.125,1.847,4.125,4.125v59.703C112.349,98.13,110.502,99.977,108.224,99.977z"/>
		</defs>
		<clipPath id="SVGID_2_">
			<use xlink:href="#SVGID_1_"  overflow="visible"/>
		</clipPath>
	</g>
</g>
<path fill="#025256" d="M31.969,69.561l23.315-15.022v7.141L37.651,72.393v0.133l17.633,10.711v7.141L31.969,75.355V69.561z"/>
<path fill="#025256" d="M58.876,96.381l10.396-49.343h4.906L63.782,96.381H58.876z"/>
<path fill="#025256" d="M100.309,75.557l-23.316,14.82v-7.143l18.021-10.709v-0.133L76.992,61.679v-7.141l23.314,14.822v6.197
	H100.309z"/>
</svg>
